<svg id="exkolnqxjkz1" xmlns="http://www.w3.org/2000/svg" xmlns:xlink="http://www.w3.org/1999/xlink" viewBox="0 0 1176.606170 873.978520" shape-rendering="geometricPrecision" text-rendering="geometricPrecision"><path id="exkolnqxjkz2" d="M1095.663500,225.462540C962.121000,39.632400,680.018810,-35.748360,402.580370,45.438510C255.907000,88.359580,114.486820,174.358310,44.402410,340.879580C-80.881000,638.554350,182.167340,733.624420,354.172340,763.924400C437.344650,778.575830,515.678850,803.187010,587.261340,836.695170C716.044720,896.979360,944.000130,950.397540,1115.893600,699.285900C1240.482200,517.279860,1184.616000,349.243770,1095.663500,225.462540Z" transform="matrix(0.99939082701910 -0.03489949670250 0.03489949670250 0.99939082701910 -11.69690000000000 -13.01070000000000)" fill="rgb(173,226,248)" stroke="none" stroke-width="1"/><path id="exkolnqxjkz3" d="M321.428890,262.228200C321.055321,259.274817,320.299807,256.382448,319.181300,253.623650C318.892904,252.568796,318.174334,251.683777,317.201200,251.184880C316.557857,251.017608,315.883387,251.010056,315.236460,251.162880L305.149180,252.706380C304.304889,252.744940,303.496482,253.059050,302.847650,253.600650C301.533830,254.982340,302.827550,257.207210,302.787330,259.113400C302.742100,261.256890,300.837590,262.996770,298.772330,263.572400C296.664186,263.998357,294.489585,263.971395,292.392650,263.493300L278.287650,261.301360C282.441753,259.975132,286.139296,257.507679,288.958220,254.180650C290.814400,251.981750,291.801910,247.876460,289.119320,246.835160C288.322267,246.616430,287.491162,246.549698,286.669420,246.638450C280.278870,246.688140,275.250040,241.352450,269.267420,239.105230C261.412779,236.345543,252.674243,238.950554,247.612780,245.560610L255.126680,245.922880C255.833582,245.883867,256.534559,246.070817,257.128150,246.456670C258.774850,247.809620,256.727580,250.408340,256.959560,252.526910C257.260960,255.279390,260.915620,255.867080,263.670560,256.145410C266.425500,256.423740,269.920460,258.662080,268.595280,261.093320C254.748640,265.862720,240.658180,251.770180,226.116280,253.504930C222.435810,253.943990,218.960440,255.389860,215.367100,256.299020C193.416360,261.852840,170.723190,247.034610,148.299290,250.172850C143.314192,251.022692,138.414697,252.314871,133.658880,254.034070C130.606950,255.036150,127.423590,256.119070,125.206080,258.443070C122.988570,260.767070,122.144600,264.741540,124.245350,267.171610C118.455140,267.648420,112.626255,267.094350,107.029580,265.535150C110.112363,267.248783,112.013922,270.508482,111.988260,274.035440C102.947540,275.509686,94.146206,278.193331,85.821000,282.014190C87.374799,284.598043,89.189637,287.015635,91.237000,289.228980L79.791660,296.581980C83.658440,297.556230,85.657660,302.828910,83.408990,306.121980C87.418400,304.338310,89.903240,299.724090,94.190640,298.788590C96.999460,298.175710,99.857500,299.324750,102.522090,300.404150C105.186680,301.483550,108.115330,302.530210,110.873750,301.720100C113.632170,300.909990,115.666750,297.333270,113.913970,295.054460C125.704162,291.614476,137.889076,289.710774,150.166680,289.390540C151.113886,289.271670,152.074478,289.453968,152.912280,289.911590C154.510530,291.020420,154.090020,293.415400,154.003930,295.358710C153.917840,297.302020,155.432440,299.856030,157.169280,298.980100C155.125880,300.752010,156.872720,304.087750,158.833150,305.951040C160.793580,307.814330,163.156460,310.385380,161.956240,312.809150C161.642990,313.441740,161.111690,313.947880,160.810290,314.586200C159.920640,316.470360,161.333180,318.666960,162.999290,319.918200C164.665400,321.169440,166.706210,322.043920,167.863570,323.776570C169.020930,325.509220,168.495350,328.542050,166.425800,328.784000L160.543440,321.315310C158.533693,323.399289,157.155885,326.010296,156.569800,328.845530C162.807550,333.944760,163.745800,344.323760,158.523600,350.458940C155.854920,353.594170,152.059860,355.499270,148.747600,357.944750C145.435340,360.390230,142.370440,363.872580,142.378770,367.989750C142.393160,375.102850,141.811960,381.711210,144.477410,388.306040C149.392524,400.466196,155.067198,412.305349,161.467860,423.753460C163.148700,426.759620,165.321020,430.054520,168.726060,430.572130Q162.271110,414.857920,157.104590,398.654750C159.347980,398.663530,161.940470,398.841650,163.255590,400.659150C164.344590,402.164150,164.110660,404.210360,164.449040,406.037000C164.879425,407.806708,165.597101,409.493863,166.573500,411.031310L187.123000,447.636130C188.826520,450.670610,190.780560,453.927820,194.036320,455.156700C196.117900,455.942380,198.526190,455.794370,200.442120,456.925520C201.943880,457.812150,202.955350,459.386000,204.486310,460.221180C208.815160,462.582660,214.834870,458.053700,218.880310,460.873180C220.037020,461.679360,220.772890,462.960090,221.838710,463.883090C225.575010,467.118710,231.704110,464.954160,236.017270,467.367850C238.797030,468.923440,240.237660,472.034520,241.720330,474.853850C245.434260,481.915950,251.443600,488.834680,259.402900,489.397020C261.903070,489.573660,264.456900,489.099620,266.900800,489.655710C269.344700,490.211800,271.750460,492.344650,271.358160,494.820170C270.685610,499.064170,272.782470,503.711290,272.219320,507.971170C271.193530,515.730670,260.187210,519.140560,259.241810,526.910260C259.034810,528.611440,259.358810,530.367380,258.953750,532.032550C258.457290,534.073400,256.924590,535.735030,256.379960,537.763550C255.347850,541.607760,258.102030,545.433550,261.127650,548.019810C264.153270,550.606070,267.762290,552.836210,269.416430,556.456570C271.164820,560.283220,270.306020,564.745070,270.874630,568.913570C272.115970,578.013960,279.976200,584.760340,288.065450,589.110300C290.530080,590.435640,293.176390,591.718740,294.771600,594.017920C296.853690,597.018830,296.646270,600.974920,297.341520,604.560640C299.044230,613.342190,306.436790,620.577820,306.646690,629.520460C306.795880,635.876590,303.262690,641.642840,301.152110,647.640180C297.148056,659.267632,298.407864,672.062534,304.602760,682.685780C306.181620,685.351780,308.069980,687.865340,309.186870,690.755530C311.179970,695.913070,310.533260,701.775990,312.370950,706.990930C314.800540,713.885530,321.476570,719.580270,320.837610,726.862450C323.868510,733.156510,330.561300,736.249100,337.291240,738.122450L349.352820,741.479950C351.662310,742.122830,354.075630,742.770810,356.427300,742.305320C358.778970,741.839830,361.023300,739.887090,360.962590,737.490560C355.047760,736.156630,348.943230,734.738140,344.067430,731.133830C339.191630,727.529520,335.851620,721.111120,337.701580,715.336830C338.559390,712.659320,340.384360,709.567410,338.649320,707.355040C337.655890,706.088320,335.839320,705.757370,334.718810,704.601600C332.971060,702.798950,333.571520,699.770600,334.827990,697.596800C336.084460,695.423000,337.900560,693.480390,338.407360,691.021260C338.931330,688.203838,337.648989,685.357537,335.191520,683.883340C337.427998,683.039004,339.461986,681.733916,341.161520,680.052750C342.731520,678.259840,343.456730,675.495750,342.221710,673.457600C345.889240,673.922730,350.219130,674.150530,352.626660,671.345000C354.549170,669.104670,354.417120,665.755300,353.657480,662.902560C352.897840,660.049820,351.613870,657.278990,351.573870,654.327120C360.034203,654.728115,368.513133,654.440607,376.926870,653.467440C375.710210,649.369863,372.945413,645.907279,369.218730,643.813900C373.029320,643.169150,376.500840,638.607130,377.704730,634.934680C378.908620,631.262230,378.601590,627.262000,377.857480,623.469550C377.571697,622.493146,377.532528,621.461107,377.743480,620.465850C378.172590,619.098340,379.515960,618.263850,380.758820,617.550110L399.673210,606.687400C400.801896,606.121885,401.824991,605.366591,402.697820,604.454500C404.679490,602.126800,404.385940,598.613010,403.371260,595.729330C402.356580,592.845650,400.731260,590.134000,400.340420,587.102100C399.171420,578.034530,408.878040,571.528590,412.153860,562.992990C413.439420,559.643310,413.701420,556.002270,413.950200,552.422990C414.217400,548.578710,414.237260,544.113410,411.285540,541.636070C408.456060,539.261350,404.035030,539.791070,401.074290,537.582190C398.359810,535.557020,397.423290,531.623860,394.457870,529.988100C391.764820,528.502600,388.388260,529.447370,385.393080,528.748710C380.119440,527.518580,376.800720,521.440560,371.414840,520.877780C368.376030,520.560250,364.936770,522.045850,362.446150,520.276090C360.251540,518.716670,360.163590,515.582320,359.745840,512.922700C358.246415,504.456900,351.632085,497.821273,343.171150,496.294640C340.037960,495.792180,336.627520,495.983000,333.962060,494.261170C331.263060,492.517650,330.025540,489.253410,327.905460,486.838900C324.488550,482.947470,319.107040,481.564900,314.065820,480.379770L293.560310,475.559210C289.920190,474.703460,285.228100,474.249700,283.274710,477.438290C282.696465,478.652362,282.287100,479.939862,282.058010,481.264950C280.556415,486.182659,276.054845,489.570931,270.913650,489.653160C269.195189,486.721833,266.410948,484.567512,263.142110,483.639890C261.062820,483.060420,258.837190,482.995970,256.854110,482.143440C254.671359,481.078038,253.023661,479.160802,252.298561,476.842676C251.573461,474.524549,251.834955,472.010126,253.021540,469.890810C255.451931,465.563668,254.682111,460.144784,251.142750,456.665720C247.655560,453.535040,242.611240,452.778610,237.935390,453.091860C236.710750,450.419720,238.758390,447.404860,240.964950,445.462980C243.171510,443.521100,245.850950,441.611980,246.331440,438.712140C247.087320,434.150680,241.267150,430.686140,236.848060,432.046230C232.428970,433.406320,229.608450,437.698640,227.743990,441.929720C226.674230,444.357350,225.764770,446.913720,224.077350,448.960720C222.389930,451.007720,219.672540,452.473380,217.102280,451.816450C213.463520,450.886450,212.058180,446.563320,211.252850,442.894950C210.172350,437.973180,209.085560,432.983130,209.311960,427.949240C209.538360,422.915350,211.235370,417.746700,214.947310,414.338940C220.996090,408.785830,230.275310,409.330200,238.438630,410.216020C236.509980,408.043020,236.986630,404.380840,239.050190,402.335510C241.261762,400.370578,244.300717,399.623993,247.171030,400.340450C249.630902,400.852494,251.846895,402.177439,253.462240,404.101970C255.782030,406.930250,256.441700,410.748970,258.195130,413.959290C259.948560,417.169610,263.891290,419.907780,267.118410,418.185460C269.905790,416.697830,270.348200,412.832710,269.654470,409.750290C268.960740,406.667870,267.487330,403.670540,267.738620,400.521030C268.218120,394.511400,274.447740,390.894030,279.945010,388.419030C285.442280,385.944030,291.737000,382.615480,292.607920,376.650000C292.637697,375.481991,292.858045,374.326686,293.260260,373.229710C293.869824,372.260820,294.717145,371.464000,295.721620,370.915050C311.765560,360.312180,328.076330,349.579880,346.413800,343.786270C347.367800,343.484840,347.479800,343.819840,348.452070,343.583690C349.812810,342.797240,348.911180,340.621640,347.606550,339.745220C346.301920,338.868800,344.558120,338.196690,344.227130,336.660270C343.983820,335.530860,344.649260,334.421880,344.822130,333.279560C345.246890,330.472560,341.888900,327.880900,339.281130,329.003110C337.808130,327.052340,340.722770,324.785640,343.079520,324.136780C350.156454,322.189121,357.421063,321.002399,364.749900,320.596780C365.595615,320.462311,366.462083,320.609692,367.215780,321.016210C368.446710,321.868870,368.289440,323.824560,367.417070,325.041610C366.544700,326.258660,365.187720,327.022800,364.100610,328.052610C361.679454,330.411226,360.773986,333.922243,361.752490,337.157610C365.578490,339.103780,369.738010,341.107230,373.975490,340.421610C378.212970,339.735990,381.974060,334.974860,379.982280,331.172370C378.127480,327.631370,372.556020,326.832710,371.597920,322.951850C370.476150,318.408050,376.908330,314.366850,375.459430,309.916570C374.824770,307.967200,372.882040,306.819950,371.391320,305.412570C367.787782,301.880614,366.725338,296.497152,368.716870,291.860990C363.789734,292.727782,358.748319,291.150150,355.194230,287.629290C351.959750,284.365040,349.379330,279.215760,344.786310,279.361820C340.571460,279.495820,336.941080,284.413120,332.999970,282.912930C332.030390,282.543860,331.008110,281.792680,330.068660,282.232810C329.444864,282.637855,329.041732,283.307026,328.975240,284.047810C327.973700,288.836200,329.696620,294.291980,327.086850,298.429720C324.246920,302.932390,317.678050,303.556640,314.235180,307.616930C312.366270,309.821000,311.642180,312.790980,309.924330,315.114690C308.206480,317.438400,304.560400,318.915800,302.498840,316.890780C304.585356,312.601355,303.432075,307.439285,299.718430,304.445700C297.804417,303.196956,295.741226,302.193405,293.577240,301.458580C291.159173,300.435045,288.858881,299.153022,286.716480,297.634870C285.643267,296.987499,284.771232,296.054423,284.197840,294.939930C283.744281,293.544411,283.805382,292.032615,284.370080,290.678250C286.500618,284.569984,291.839704,280.144721,298.237220,279.184570C300.982100,278.811140,304.176770,278.942720,305.993290,276.851300C306.954450,275.744690,307.458770,274.071610,308.853910,273.622170C309.746303,273.442876,310.672749,273.556966,311.494980,273.947410L321.740310,277.553590C322.883431,278.069655,324.141652,278.277755,325.390060,278.157230C326.674086,277.984238,327.607273,276.850073,327.529710,275.556770C327.202360,273.855360,324.584360,273.038900,324.822580,271.322770C324.956009,270.766638,325.254996,270.264062,325.680050,269.881420C333.166349,261.913265,343.820734,257.705892,354.731350,258.409180C356.024480,260.532980,353.979350,263.047930,352.277660,264.860960C350.575970,266.673990,349.208480,269.913430,351.266410,271.309010C352.109766,271.739427,353.047874,271.950697,353.994320,271.923360C356.516715,272.264781,358.968077,273.008316,361.255120,274.125670Q366.565630,276.436730,371.672310,279.182920C371.371590,276.938210,371.084580,274.573430,371.935400,272.474560C372.786220,270.375690,375.204330,268.729410,377.316450,269.546800C379.351970,270.334550,380.395900,273.029800,382.564520,273.276730C385.457330,273.606120,386.598610,269.332490,385.390260,266.683580C384.181910,264.034670,381.789820,261.816650,381.590150,258.912010C381.455440,256.952430,382.201150,254.522120,380.635860,253.335530C380.078843,252.979289,379.446556,252.757580,378.789040,252.687950L339.705170,245.495800C337.384290,245.068710,334.031020,245.396050,333.928100,247.753660C333.870640,249.069660,335.046170,250.371580,334.525520,251.581540C333.969830,252.872940,332.144320,252.754870,330.814700,253.211630C328.751640,253.920340,327.716400,256.370070,327.914540,258.542450C328.277318,260.701038,329.113306,262.752593,330.362540,264.549960C327.820360,263.486790,323.971070,263.291360,321.428890,262.228200Z" transform="matrix(1 0 0 1 -11.69690000000000 -13.01070000000000)" fill="rgb(63,61,86)" stroke="none" stroke-width="1"/><path id="exkolnqxjkz4" d="M290.243820,229.050800C285.195165,227.380024,279.640557,229.043520,276.341340,233.214320C275.697800,234.061650,275.157340,235.229720,275.696080,236.147230C276.468500,237.462610,278.436620,236.943060,279.887640,236.472530C282.020375,235.710564,284.341708,235.655188,286.508350,236.314590C287.870860,236.782390,289.089820,237.609160,290.458280,238.059280C291.815743,238.627054,293.375753,238.399086,294.513980,237.466610C295.453160,236.508750,295.512090,235.019610,295.513750,233.678110C295.645678,232.769030,295.360413,231.848950,294.737350,231.173950C294.189578,230.856682,293.574042,230.674619,292.941820,230.642870C291.525911,230.380784,290.245833,229.632841,289.322330,228.528020" transform="matrix(1 0 0 1 -11.69690000000000 -13.01070000000000)" fill="rgb(63,61,86)" stroke="none" stroke-width="1"/><path id="exkolnqxjkz5" d="M304.336640,225.127000C303.214989,225.065918,302.142598,225.593861,301.506986,226.520052C300.871375,227.446244,300.764454,228.636754,301.224860,229.661380C302.918713,230.123320,304.688364,230.238706,306.427860,230.000630C308.201988,229.725195,309.636479,228.409990,310.064520,226.666380C308.016523,227.039072,305.903134,226.635446,304.136630,225.534240" transform="matrix(1 0 0 1 -11.69690000000000 -13.01070000000000)" fill="rgb(63,61,86)" stroke="none" stroke-width="1"/><path id="exkolnqxjkz6" d="M351.619770,218.573900C347.009495,219.554070,342.531136,221.075376,338.277770,223.106200C342.394381,224.688554,344.993252,228.775510,344.680230,233.174640C344.500281,233.997265,344.521119,234.851132,344.740980,235.664000C345.230980,236.851930,346.650900,237.297670,347.899210,237.602580C350.141975,238.285137,352.483902,238.584056,354.826210,238.486730C357.206579,238.362177,359.363180,237.044308,360.559970,234.982910C360.899427,234.019879,361.297631,233.078575,361.752340,232.164300C364.744530,227.607250,373.633540,233.117400,376.846130,228.712960C377.977810,227.161430,377.874300,224.825960,379.349570,223.596520C380.112740,223.060879,380.997108,222.723380,381.923100,222.614390C388.383634,221.330822,394.909508,220.401399,401.471510,219.830280C404.580740,219.559710,408.633390,218.443280,408.659260,215.322440C396.948057,213.022412,384.805055,214.655978,374.118040,219.969180C370.267620,221.897730,365.175040,225.954490,361.466120,223.397700C360.077420,222.440390,360.146180,219.862600,358.234860,218.786130C356.280760,217.685570,353.694090,218.133190,351.619770,218.573900Z" transform="matrix(1 0 0 1 -11.69690000000000 -13.01070000000000)" fill="rgb(63,61,86)" stroke="none" stroke-width="1"/><path id="exkolnqxjkz7" d="M389.918860,225.735940L395.416280,226.792260C393.369137,226.701598,391.382093,227.496869,389.962786,228.974902C388.543480,230.452935,387.829379,232.470572,388.002920,234.512360C393.151030,236.232160,398.763640,234.558600,404.186600,234.787210C409.609560,235.015820,415.919210,238.889530,414.993480,244.237780C414.713570,245.854910,413.779380,247.470960,414.265170,249.038580C414.605660,250.137330,415.574670,250.916960,416.121620,251.928900C417.261370,254.037590,416.350440,256.704770,414.911280,258.621640C413.472120,260.538510,411.537700,262.067960,410.274450,264.105060C407.132580,269.171630,408.917640,275.721700,410.789240,281.381970C411.330404,283.520675,412.329701,285.516298,413.718010,287.230800C416.490860,290.179020,421.009590,290.435430,425.056470,290.494490C428.001930,290.537490,431.376080,290.391960,433.238750,288.109850C435.670550,285.130440,433.970100,280.481930,435.571150,276.985190C437.025220,273.809440,440.729880,272.447010,444.086360,271.480730C450.235470,269.710490,456.502020,268.205500,462.315360,265.531580C469.534060,262.211260,476.280420,257.036900,484.214610,256.609500C486.440530,256.489600,488.721610,256.752300,490.865730,256.142430C493.009850,255.532560,495.046610,253.678810,494.884290,251.455580C494.745590,249.555990,493.138440,248.161090,491.882640,246.729090C490.626840,245.297090,489.640640,243.095090,490.794800,241.580010L511.591350,237.695590C510.117200,233.678140,508.968800,228.387080,512.356240,225.772070C513.578450,224.828560,515.214890,224.451450,516.255520,223.310800C518.029150,221.366700,517.137270,218.017800,515.089890,216.364450C513.042510,214.711100,510.274210,214.327290,507.651640,214.109450C498.532820,213.352130,489.361640,213.852560,480.225170,214.353370Q453.435380,215.821830,426.645580,217.290280C423.050240,217.487350,418.899190,217.186280,415.601690,218.412870C412.810120,219.451300,410.825270,221.357450,407.632520,222.027160C401.738560,223.263520,395.252340,222.426890,389.918860,225.735940Z" transform="matrix(1 0 0 1 -11.69690000000000 -13.01070000000000)" fill="rgb(63,61,86)" stroke="none" stroke-width="1"/><path id="exkolnqxjkz8" d="M488.403400,269.189200C487.843209,269.100559,487.270372,269.230476,486.803230,269.552110C486.494345,269.892211,486.310609,270.327438,486.282330,270.786000C485.927424,272.809808,486.350178,274.892984,487.465930,276.618340C488.623425,278.342037,490.625205,279.301762,492.693930,279.124830C495.169290,278.809180,496.993520,276.697370,499.269230,275.666880C502.776660,274.080070,517.672090,271.606360,507.368230,266.039610C503.817300,264.121180,501.522790,265.814700,498.724080,267.078120C495.539796,268.707130,491.971583,269.437002,488.403400,269.189200Z" transform="matrix(1 0 0 1 -11.69690000000000 -13.01070000000000)" fill="rgb(63,61,86)" stroke="none" stroke-width="1"/><path id="exkolnqxjkz9" d="M578.653220,222.593340C577.450040,223.084889,576.443504,223.961032,575.790780,225.084960C575.166180,226.270262,575.580879,227.737132,576.733620,228.419960C577.183016,228.582902,577.659409,228.658470,578.137170,228.642600L583.029320,228.788750C585.107610,228.850840,587.703630,229.293460,588.262100,231.296260C588.676790,232.783400,587.748640,234.694390,588.868520,235.757130C589.349135,236.129311,589.927043,236.354712,590.532730,236.406220C592.144261,236.820191,593.827140,236.874502,595.462010,236.565300C599.021540,235.610540,597.151190,233.438040,598.272280,231.503590C599.987610,228.543750,599.690660,230.335480,602.713130,228.639130C604.945240,227.386360,607.829600,225.113810,605.966550,221.920840C602.726740,216.368340,583.434000,220.208000,578.653220,222.593340Z" transform="matrix(1 0 0 1 -11.69690000000000 -13.01070000000000)" fill="rgb(63,61,86)" stroke="none" stroke-width="1"/><path id="exkolnqxjkz10" d="M675.212100,219.801810L672.371370,220.180890C665.965450,221.035730,659.523230,221.898440,653.353460,223.822120C656.024165,224.878054,658.826154,225.565606,661.682290,225.865850C663.254530,225.942918,664.816303,226.164923,666.347740,226.529040C669.072840,227.340280,671.818740,229.435160,674.451510,228.362040C676.083900,227.696660,676.616590,225.996980,677.968810,225.096190C678.902530,224.474190,682.443970,223.467450,682.839870,222.839650C686.040460,217.764290,677.672320,219.473510,675.212100,219.801810Z" transform="matrix(1 0 0 1 -11.69690000000000 -13.01070000000000)" fill="rgb(63,61,86)" stroke="none" stroke-width="1"/><path id="exkolnqxjkz11" d="M687.686070,232.712810C683.891527,234.834566,680.370953,237.412800,677.202880,240.390000C675.868170,241.644680,674.504880,243.205160,674.625940,245.033000C674.786800,247.462380,677.374650,248.871540,679.616680,249.820780L688.697910,253.665630C689.799580,252.112870,688.791270,249.969440,687.652690,248.443530C686.514110,246.917620,685.161090,245.152180,685.664130,243.315960C686.238190,241.220510,688.793130,240.506450,690.935590,240.145460C694.426360,239.557290,703.842970,239.604460,702.711510,233.978770C701.378320,227.350000,691.190170,230.754180,687.686070,232.712810Z" transform="matrix(1 0 0 1 -11.69690000000000 -13.01070000000000)" fill="rgb(63,61,86)" stroke="none" stroke-width="1"/><path id="exkolnqxjkz12" d="M685.859920,607.840000C684.995390,610.342870,684.913370,613.291280,686.408830,615.476520C688.086900,617.928600,691.445230,618.842640,694.350730,618.220810C697.244099,617.451000,699.823053,615.792869,701.724310,613.479990C703.463099,611.542260,704.893539,609.348643,705.965470,606.976060C707.461531,603.278753,708.516667,599.418022,709.109050,595.473740L711.928650,580.669740C712.558720,577.361140,712.534330,567.217530,706.453240,570.522430C704.791980,571.425270,700.945600,578.553660,699.204640,580.575070C696.066860,584.218300,695.651710,587.753310,693.999870,592.166960C691.930850,597.695330,687.772560,602.302800,685.859920,607.840000Z" transform="matrix(1 0 0 1 -11.69690000000000 -13.01070000000000)" fill="rgb(63,61,86)" stroke="none" stroke-width="1"/><path id="exkolnqxjkz13" d="M1007.042000,683.597320C1005.052090,682.820782,1003.120906,681.901441,1001.263540,680.846480C999.401039,685.966812,998.410860,691.363357,998.334240,696.811370L1011.950120,689.106590C1013.998380,687.947590,1016.319890,686.337110,1016.275850,683.984070C1016.313484,683.392148,1016.024748,682.826954,1015.523080,682.510540C1015.220503,682.389100,1014.891040,682.350442,1014.568570,682.398540C1012.549570,682.566800,1010.708690,683.560260,1008.804080,684.251100C1006.899470,684.941940,1004.672390,685.307100,1002.924890,684.281870" transform="matrix(1 0 0 1 -11.69690000000000 -13.01070000000000)" fill="rgb(63,61,86)" stroke="none" stroke-width="1"/><path id="exkolnqxjkz14" d="M1078.868590,688.171550C1077.374194,688.578342,1075.914189,689.102298,1074.502140,689.738550C1071.377530,691.328360,1069.251930,694.348020,1066.440140,696.441970C1063.749430,698.445750,1060.510390,699.545910,1057.330640,700.615590C1056.395270,701.442400,1056.825080,703.107590,1057.840420,703.833920C1058.932087,704.454948,1060.184132,704.736373,1061.436550,704.642230C1064.739980,704.715150,1068.220260,704.746960,1071.113750,703.151420C1072.744116,702.093850,1074.269741,700.882971,1075.669840,699.535280C1079.052910,696.712540,1083.115630,694.850110,1087.137270,693.050280C1088.601024,692.497603,1089.954511,691.688366,1091.134190,690.660560C1093.661320,688.170830,1093.839020,684.329870,1090.195070,683.482490C1087.250790,682.797740,1081.672070,687.264600,1078.868590,688.171550Z" transform="matrix(1 0 0 1 -11.69690000000000 -13.01070000000000)" fill="rgb(63,61,86)" stroke="none" stroke-width="1"/><path id="exkolnqxjkz15" d="M1110.604760,667.441130C1110.936292,663.969934,1109.655054,660.538807,1107.129510,658.134490C1107.092270,661.562140,1106.988180,665.213720,1105.060380,668.048110C1103.686800,670.067630,1101.533160,671.431870,1100.028280,673.355550C1098.523400,675.279230,1097.855400,678.328440,1099.620590,680.016430C1100.748873,680.874996,1102.123158,681.348330,1103.540840,681.366650C1107.054610,681.780270,1111.121700,682.010800,1113.586150,679.472260C1114.931280,678.086690,1115.585580,676.034540,1117.226150,675.015860C1117.837302,674.759234,1118.383052,674.368690,1118.823150,673.873030C1119.500550,672.796190,1118.424220,671.377030,1117.212650,670.989030C1116.001080,670.601030,1114.665950,670.783430,1113.448310,670.414930C1112.230670,670.046430,1111.113560,668.677240,1111.738310,667.569040" transform="matrix(1 0 0 1 -11.69690000000000 -13.01070000000000)" fill="rgb(63,61,86)" stroke="none" stroke-width="1"/><path id="exkolnqxjkz16" d="M1054.199840,541.770000C1052.356400,542.218348,1050.447264,542.330913,1048.563910,542.102300C1045.435770,541.527200,1043.001110,539.169680,1040.475630,537.236300C1034.472130,532.665203,1027.173912,530.115263,1019.630000,529.953000C1012.767480,529.823410,1005.840850,531.683000,999.100860,530.385570C999.541210,532.834840,1001.637070,534.671850,1003.873280,535.763730C1006.109490,536.855610,1008.577520,537.405080,1010.824460,538.474730C1014.422988,540.204773,1017.277208,543.174125,1018.863670,546.838220C1019.587360,548.527450,1020.042670,550.365740,1021.138910,551.840720C1023.379510,554.855540,1027.626500,555.517550,1031.374640,555.271000C1036.261360,554.949550,1041.365240,553.544100,1045.911510,555.364740C1049.389400,556.757520,1051.878580,559.801560,1054.782510,562.168500C1057.686440,564.535440,1061.776600,566.292150,1065.111100,564.584320C1058.002162,562.282776,1053.215561,555.626172,1053.296740,548.154390C1056.567190,548.455130,1065.986940,548.338740,1065.479550,542.781740C1065.049630,538.072260,1057.008060,541.261690,1054.199840,541.770000Z" transform="matrix(1 0 0 1 -11.69690000000000 -13.01070000000000)" fill="rgb(63,61,86)" stroke="none" stroke-width="1"/><path id="exkolnqxjkz17" d="M1011.416600,580.087120C1011.997280,576.902260,1015.173380,574.089790,1014.184040,571.007310C1013.499840,568.875600,1011.028190,567.823150,1008.789980,567.770590C1006.551770,567.718030,1004.352980,568.384740,1002.115040,568.447520C1000.658363,568.370191,999.198133,568.390931,997.744240,568.509600C993.301780,569.239850,990.563550,573.896200,986.376960,575.551840C983.831290,576.558550,980.971450,576.366100,978.323900,577.062050C972.313990,578.641840,968.511320,584.320900,964.310170,588.899660C957.522156,596.264786,948.678980,601.421967,938.926120,603.703180C935.509020,604.494410,931.835670,605.000620,929.119550,607.219920C925.522740,610.158810,924.637360,615.197060,923.837130,619.772400C921.626227,632.408322,918.247405,644.811792,913.744130,656.823250L928.014560,658.645250C930.727700,658.991660,933.539020,659.330640,936.153460,658.527010C938.052973,657.810440,939.852210,656.852042,941.506710,655.675500C947.862317,651.729585,954.975555,649.161958,962.386160,648.138760C966.123160,647.625710,970.041160,647.531700,973.548080,648.920760C977.055000,650.309820,980.063600,653.459880,980.357510,657.220420C983.447669,656.259052,986.816132,657.078281,989.119640,659.351420C991.354274,661.628284,992.817529,664.549371,993.302920,667.702480C993.678820,669.654820,994.054920,671.994110,995.866570,672.813140C997.344570,673.481340,999.040030,672.761660,1000.656880,672.632280C1006.143370,672.193280,1010.696100,678.590630,1016.088760,677.489000C1021.872290,676.307520,1023.292190,667.645890,1028.934430,665.910860C1032.174980,664.914370,1036.720430,666.126100,1038.272170,663.111780C1039.639910,660.454930,1036.911100,657.388960,1037.192510,654.414000C1037.539010,650.750840,1041.859940,649.196000,1045.190980,647.633000C1056.674980,642.244450,1062.124530,626.788000,1056.559660,615.388430C1053.262490,608.634210,1046.774920,603.317430,1045.576790,595.897500C1044.654970,590.188740,1046.905380,583.531720,1043.265620,579.038190C1041.414050,576.752310,1038.279090,575.490550,1037.177310,572.762990C1036.483780,571.046090,1036.762530,569.098110,1036.389310,567.284440C1036.016090,565.470770,1034.433770,563.573640,1032.642780,564.043740C1027.443890,565.408340,1025.784940,581.468550,1023.001480,585.370740C1018.770340,591.302330,1010.084160,587.395160,1011.416600,580.087120Z" transform="matrix(1 0 0 1 -11.69690000000000 -13.01070000000000)" fill="rgb(63,61,86)" stroke="none" stroke-width="1"/><path id="exkolnqxjkz18" d="M915.322330,547.838100C913.545700,547.339940,911.605720,546.849200,909.903430,547.561100C908.201140,548.273000,907.207010,550.772320,908.573260,552.012470C919.261730,551.596100,930.015640,551.182630,940.613260,552.634160C952.823430,554.306550,964.907350,558.449160,977.171100,557.230420C970.165710,555.163699,963.044699,553.511286,955.845040,552.281760L943.839140,549.988300C940.618407,549.313719,937.364083,548.810865,934.089950,548.481870C927.240650,547.916200,922.056600,549.726370,915.322330,547.838100Z" transform="matrix(1 0 0 1 -11.69690000000000 -13.01070000000000)" fill="rgb(63,61,86)" stroke="none" stroke-width="1"/><path id="exkolnqxjkz19" d="M926.022690,510.612180C925.135360,510.538090,924.036390,510.474260,923.577340,511.237180C923.138760,511.966110,923.640770,512.929180,923.404930,513.746580C923.082730,514.863250,921.620290,515.148520,920.468050,514.996490C919.315810,514.844460,918.069650,514.480360,917.048810,515.035930C915.985361,515.762362,915.528881,517.103439,915.928310,518.327810C916.345687,519.511307,917.020698,520.587336,917.904590,521.478180C919.414310,523.380606,921.134513,525.106036,923.032350,526.621520C926.705890,529.333150,931.682730,530.639890,933.996460,534.576200C934.322856,535.339120,934.824540,536.014332,935.460790,536.547030C936.571520,537.250600,938.020100,536.715350,939.215980,536.168920L943.407980,534.253510C944.163088,533.981507,944.837190,533.523047,945.367650,532.920730C946.325370,531.621250,945.737120,529.773630,944.933270,528.373730C944.129420,526.973830,943.100450,525.525060,943.272960,523.920040C943.580530,521.058330,947.260010,519.963700,948.772960,517.515230C950.297960,515.047230,949.305180,511.867300,949.480960,508.971230C949.686650,505.584490,951.814740,501.179130,948.390830,498.648710C945.480940,496.498170,942.699660,498.485260,940.610470,500.859500C936.204790,505.866270,934.121590,511.288500,926.022690,510.612180Z" transform="matrix(1 0 0 1 -11.69690000000000 -13.01070000000000)" fill="rgb(63,61,86)" stroke="none" stroke-width="1"/><path id="exkolnqxjkz20" d="M951.468260,460.009230C952.899430,462.749480,955.882990,464.384760,957.443620,467.053400C959.135210,469.945960,958.942480,473.683270,960.777620,476.486960C962.660410,479.363480,966.449400,480.890660,967.505310,484.162400C968.658090,487.734330,966.042530,492.075770,968.127460,495.196770C968.913601,496.228202,970.096141,496.882824,971.387571,497.001477C972.679001,497.120130,973.961026,496.691947,974.921950,495.821030C976.749910,493.830710,976.658661,490.746200,974.716240,488.867420C973.481800,487.741910,971.709240,487.255540,970.678560,485.940890C970.141789,485.182207,969.784217,484.311588,969.632790,483.394640C969.070952,480.749729,969.160949,478.007845,969.895020,475.405470C970.170818,474.745005,970.240848,474.016675,970.095950,473.315760C969.631950,471.967030,967.805690,471.871340,966.523950,471.245650C963.612780,469.824590,963.683430,465.716120,964.192050,462.516750C963.853420,464.646750,956.266170,461.024010,955.471670,459.817490C953.893360,457.420680,954.752360,452.797230,954.439910,450.148630C951.032490,451.790570,949.718440,456.658790,951.468260,460.009230Z" transform="matrix(1 0 0 1 -11.69690000000000 -13.01070000000000)" fill="rgb(63,61,86)" stroke="none" stroke-width="1"/><path id="exkolnqxjkz21" d="M875.031440,502.171060C873.631050,500.603370,871.521750,498.963350,869.644290,499.908810C868.211900,500.630120,867.817880,502.611980,868.379290,504.114260C869.063213,505.573483,870.116241,506.828876,871.434210,507.756260C875.346760,510.983070,879.559900,513.895400,882.973210,517.646380C889.081540,524.359070,892.317360,533.416740,898.960450,539.600690C900.295757,541.034387,902.063877,541.991294,903.994450,542.325090C905.929860,542.505140,908.103230,541.266280,908.325700,539.335290C908.508950,537.744650,907.400070,536.320930,906.316410,535.142200C903.735890,532.335290,900.910820,529.751630,898.474480,526.818710C897.349285,525.692126,896.642174,524.215334,896.470020,522.632420C896.457660,521.053220,897.897740,519.400340,899.427780,519.791420C897.566950,519.315790,896.186910,516.215660,893.455780,515.632900C891.173340,515.145900,890.621180,516.558900,887.904850,515.393900C882.724120,513.171910,878.659500,506.232570,875.031440,502.171060Z" transform="matrix(1 0 0 1 -11.69690000000000 -13.01070000000000)" fill="rgb(63,61,86)" stroke="none" stroke-width="1"/><path id="exkolnqxjkz22" d="M996.763530,349.524530C995.277417,349.082844,993.816340,348.560922,992.386730,347.961060C988.540120,346.806420,983.450650,349.633780,983.963380,353.617060C984.304050,356.263630,986.767140,358.047960,988.127380,360.343620C990.144620,363.748010,989.606840,368.065980,988.546790,371.878520C988.286539,373.058997,987.791594,374.175098,987.091380,375.160470C986.112417,376.200783,984.942110,377.042649,983.644500,377.640000C978.449842,380.552953,973.868790,384.444805,970.154600,389.100400C969.750792,389.530366,969.469495,390.060626,969.339940,390.636080C969.156490,391.980970,970.508350,392.960660,971.272650,394.082360C972.970420,396.574070,971.743300,399.926960,971.911140,402.937420C971.858691,403.802885,972.257774,404.633874,972.966050,405.134000C973.989340,405.653800,975.201910,404.770860,975.756550,403.766000C977.597170,400.431320,976.210620,395.078600,979.663550,393.470770C980.316710,393.166630,981.108550,393.038410,981.544290,392.464640C982.235600,391.554430,981.568630,390.206710,981.918970,389.118760C982.444970,387.485280,984.679100,387.411950,986.393650,387.484400C989.347136,387.607907,992.299509,387.214854,995.117810,386.322940C996.223368,386.060061,997.227505,385.478593,998.005810,384.650580C999.038010,383.362380,998.946530,381.530720,998.740280,379.892940C997.707209,371.727869,995.120840,363.835999,991.120770,356.643290C994.153910,357.030750,997.453840,357.366290,1000.071210,355.785570C1001.536830,354.900420,1003.294360,352.253420,1002.567460,350.451760C1001.417930,347.602650,999.341320,350.000810,996.763530,349.524530Z" transform="matrix(1 0 0 1 -11.69690000000000 -13.01070000000000)" fill="rgb(63,61,86)" stroke="none" stroke-width="1"/><path id="exkolnqxjkz23" d="M607.914570,394.431070C608.277570,396.377880,608.634390,398.427780,607.996380,400.302550C607.358370,402.177320,605.351330,403.743790,603.456120,403.169350C601.985280,402.723540,601.135660,401.244630,600.091240,400.117110C594.283100,393.846830,581.179030,397.477110,577.591010,389.719730C576.126660,386.553730,577.121820,382.760730,576.123010,379.418620C574.827059,375.445695,571.008651,372.851708,566.837740,373.110790C564.988163,373.377918,563.187865,373.915322,561.494510,374.705790C550.150278,379.249074,538.240659,382.227824,526.093310,383.560090C523.784774,383.700743,521.501253,384.116234,519.291130,384.797760C514.303330,386.606020,510.895320,391.230160,508.469980,395.948820C506.044640,400.667480,504.254130,405.775930,501.002480,409.968160C497.585120,414.374060,492.796390,417.459310,488.329420,420.796450C486.608633,421.905465,485.175770,423.407225,484.148730,425.178160C483.180320,427.166300,483.234950,429.478810,483.310120,431.688990L484.223070,458.532680C484.340500,461.985440,484.487950,465.561620,486.033290,468.651500C487.963010,472.509930,491.775110,475.037030,494.419700,478.445500C497.118548,481.948294,498.524411,486.275911,498.399400,490.696060C498.343110,492.473120,498.166530,494.574990,499.550530,495.691060C500.392450,496.236928,501.377611,496.520256,502.380890,496.505060L538.692540,499.476980C545.080020,499.999760,552.158830,500.859320,556.329100,505.725750C558.297270,508.022480,559.878330,511.325310,562.892970,511.571750C564.186060,511.677440,565.444270,511.146630,566.737620,511.044200C570.000670,510.785770,572.867220,513.262380,574.676300,515.990280C577.414361,520.148073,578.657227,525.113341,578.200810,530.070750C577.904180,533.182540,576.939380,536.207750,576.731380,539.326750C575.939920,551.194520,586.000530,561.505320,586.195540,573.397860C586.310250,580.393170,582.989460,586.929160,579.751870,593.131220C584.977190,601.047130,580.698430,611.588120,582.778750,620.842220C584.752400,629.621830,592.072750,636.495040,593.896860,645.306930C594.731920,649.341000,594.780230,654.305340,598.337480,656.383090C599.898377,657.143886,601.628744,657.490351,603.362230,657.389180C613.818352,657.513036,624.155260,655.159721,633.527300,650.521760C637.925920,648.339000,642.484510,645.080480,643.252700,640.230510C643.872200,636.319320,641.888760,631.944460,643.907300,628.537610C646.286300,624.522300,652.380780,624.840610,655.881100,621.753470C661.559710,616.745230,657.131620,607.193790,659.432420,599.980240C661.500560,593.496140,668.619770,590.051380,672.148710,584.231820C673.537471,581.729035,674.534063,579.028012,675.103710,576.223000C676.720356,569.518917,677.726651,562.682222,678.110270,555.796650C678.204311,551.613114,678.512766,547.437150,679.034420,543.285200C682.839170,519.647450,706.207660,503.819200,713.794690,481.111200C714.519260,478.942570,714.859530,476.053980,712.930260,474.826870C711.785926,474.280917,710.488638,474.145140,709.256060,474.442320L692.517210,476.552650C690.438110,476.814770,688.234300,477.059760,686.324950,476.196200C684.415600,475.332640,683.047180,472.917200,684.059950,471.082670C686.902950,465.932960,681.054810,459.425400,678.456700,454.147920C671.459607,439.937431,663.127254,426.424400,653.572120,413.791240C652.960459,413.141357,652.577427,412.309724,652.481120,411.422480L657.231800,411.580660C655.628150,405.826270,652.981670,399.529270,647.391160,397.424290C644.240930,396.238140,640.752290,396.648290,637.391160,396.831950C627.764000,397.357880,617.442930,395.904360,607.914570,394.431070Z" transform="matrix(1 0 0 1 -11.69690000000000 -13.01070000000000)" fill="rgb(63,61,86)" stroke="none" stroke-width="1"/><path id="exkolnqxjkz24" d="M637.399000,264.755320C639.918200,267.430590,642.741180,270.267030,646.386170,270.733320C652.824170,271.556990,657.453050,264.899480,660.400170,259.116720C660.627017,262.182149,663.252745,264.510026,666.323270,264.367930C667.912425,264.100553,669.429158,263.507573,670.778270,262.626210C683.533944,255.655415,697.821300,251.962017,712.357190,251.877720C712.068030,249.597092,713.548074,247.466425,715.786190,246.941340C718.741610,246.355420,721.403820,248.910600,722.829500,251.564880C724.255180,254.219160,725.144150,257.295690,727.409240,259.282450C729.674330,261.269210,734.059710,261.182660,734.954400,258.305620C735.813340,255.543530,732.935850,253.188050,730.545220,251.559620C728.154590,249.931190,725.634780,246.917210,727.244680,244.514060C739.457990,241.810550,751.747060,239.096800,764.244470,238.559440C766.372184,238.633509,768.492333,238.268279,770.472620,237.486540C772.378510,236.551270,773.893360,234.428240,773.380850,232.368030C767.802552,233.679334,761.985367,231.485147,758.662660,226.816470C776.003660,225.385470,794.447660,224.165740,809.815770,232.325400C811.659950,236.284400,802.260770,239.578260,804.775570,243.149070C805.577620,244.287930,807.184780,244.421490,808.577470,244.447340C819.256950,244.645620,829.998070,244.840050,840.557000,243.227710C844.415680,242.638500,848.313180,241.806710,852.187240,242.284520C858.639970,243.080330,864.158970,247.385780,870.507240,248.789520C873.091050,249.360870,875.988180,249.380220,878.166240,247.877390C880.344300,246.374560,881.280530,242.952600,879.495670,240.998950C885.472810,235.140830,895.393020,236.592730,903.278330,239.397310C911.163640,242.201890,918.633820,246.724740,926.979660,247.349890C932.964380,247.798180,939.032260,246.188380,944.945890,247.211590C948.662030,247.854590,952.120580,249.507800,955.752580,250.523490C962.621900,252.444490,969.888480,252.038980,977.020740,252.131430C995.218615,252.376595,1013.217659,255.953123,1030.126790,262.683950C1032.326433,263.400104,1034.341844,264.590848,1036.030460,266.171950C1037.603800,267.856800,1038.406200,270.474950,1037.348750,272.523370L1019.876030,269.970370C1021.522300,273.211180,1025.781300,273.763450,1029.240030,274.881460C1032.698760,275.999470,1036.284930,279.819050,1034.206330,282.801060C1030.458770,281.607820,1027.062720,285.354630,1025.169650,288.802000C1023.276580,292.249370,1020.969650,296.378000,1017.042330,296.588000C1013.525520,296.776060,1009.272260,293.781540,1006.979940,296.455230C1010.146873,300.450409,1012.858772,304.786033,1015.065440,309.381850C1017.330150,314.099970,1018.943190,320.044960,1015.882200,324.289940C1015.400626,325.047741,1014.670179,325.614178,1013.816350,325.891940C1011.316450,326.524800,1009.692170,323.466550,1007.899350,321.612940C1005.640230,319.277110,1002.223750,318.615510,999.164400,317.520040C996.105050,316.424570,992.882290,314.269590,992.642920,311.028850C992.493990,309.012540,993.558550,307.138200,994.342680,305.274660C995.660631,302.133560,996.237027,298.730999,996.027130,295.331080C995.855480,292.595830,995.088510,289.750570,993.124130,287.839450C991.159750,285.928330,987.768240,285.322060,985.659410,287.072450C984.675410,287.889180,983.886820,289.195600,982.608980,289.244450C980.351150,289.330830,978.617600,285.394450,976.801090,286.738160C977.014222,288.169901,976.717357,289.631006,975.962390,290.866050C970.541760,295.580430,962.214390,293.585980,955.226160,295.251350C951.903150,296.202357,948.721625,297.591769,945.765520,299.382930C944.659686,299.855783,943.718707,300.645621,943.061340,301.652760C942.189030,303.347920,943.150780,305.518970,944.688340,306.646090C946.318899,307.646132,948.151212,308.271547,950.052930,308.477160C958.572430,310.090680,967.216200,312.588470,973.942350,318.060610C980.668500,323.532750,985.079350,332.578510,982.950890,340.984170L966.150040,324.930550Q967.107220,335.041400,967.236420,345.207950C967.345060,346.531320,967.163304,347.862448,966.703860,349.108250C965.506130,351.753700,962.259920,352.643920,959.415300,353.227910C957.814984,353.531951,956.420748,354.505099,955.583518,355.902417C954.746288,357.299736,954.545801,358.988142,955.032520,360.542670C956.043200,363.836980,958.563210,366.405380,960.870650,368.964600C963.178090,371.523820,965.448800,374.432480,965.750870,377.865070C966.052940,381.297660,963.463210,385.166730,960.025640,384.928070C957.419700,384.747130,955.486340,382.414290,954.374820,380.050360C953.263300,377.686430,952.601920,375.053070,950.931820,373.044470C945.876880,366.964910,934.522820,369.569650,929.994380,363.088360C927.647423,365.750616,926.846119,369.438194,927.876590,372.834360C929.983300,371.515520,932.867350,372.740890,934.450180,374.657190C936.033010,376.573490,936.779720,379.030320,938.022750,381.182630C939.700090,384.086930,942.369520,386.661630,942.603650,390.007350C942.541578,391.272479,942.562904,392.540324,942.667490,393.802650C943.083380,395.829850,944.796830,397.285450,945.984830,398.979900C948.749140,402.922620,948.612550,408.338970,946.830830,412.812460C945.049110,417.285950,941.848120,421.023980,938.677590,424.648090C933.139850,430.978090,927.489080,437.270980,920.923900,442.527710C919.050570,444.027710,917.051300,445.502630,915.884560,447.599710C914.717820,449.696790,914.657990,452.640350,916.450900,454.235570C915.168030,454.299820,912.867350,454.930790,911.584480,454.995040C911.133453,449.848725,911.035427,444.677561,911.291090,439.517850C906.228470,437.086970,900.777480,443.596980,901.430770,449.174850C902.084060,454.752720,906.118430,459.228850,908.990770,464.054690C911.091260,467.583690,912.652300,471.698600,911.951040,475.745110C911.249780,479.791620,907.637690,483.524560,903.546400,483.167670C897.038730,482.600010,894.316660,473.257610,887.872400,472.188410C887.304033,472.054971,886.707435,472.114201,886.176400,472.356790C885.219790,472.881790,885.053510,474.161790,884.999800,475.251660C884.736150,480.600810,884.507880,486.162590,886.596000,491.094390C889.650780,498.309320,897.542440,504.369010,895.887000,512.027110C886.969160,507.881750,882.332520,497.880970,880.227330,488.274710C878.122140,478.668450,877.771280,468.583710,873.997580,459.502370C871.132080,463.175150,865.109110,460.138970,862.490970,456.285950C860.008840,452.633080,858.480620,448.407500,856.072450,444.705450C853.664280,441.003400,849.975170,437.688450,845.563450,437.484890C840.937990,437.271430,836.926450,440.445600,833.398620,443.444750C830.497690,445.910950,827.519310,448.474200,825.823620,451.883320C823.356050,456.844200,824.001530,462.692540,823.882620,468.231950C823.754040,474.220560,822.484880,480.539040,818.403290,484.923160C814.321700,489.307280,806.787980,490.834310,802.285990,486.883110C799.935640,484.820300,798.797640,481.738340,797.783990,478.780010C792.897882,464.519697,788.828592,449.992465,785.595920,435.269000C784.839450,438.629490,781.888600,442.960830,779.069630,440.981310C778.437089,440.449168,777.924629,439.788895,777.566090,439.044090C772.307780,430.131920,762.569950,424.786290,752.731090,421.581090C742.892230,418.375890,732.540500,416.880800,722.810750,413.358210C717.358269,411.383393,712.150466,408.789284,707.289580,405.626810C704.765161,409.335714,704.478706,414.130486,706.543580,418.113570C708.701860,421.935130,713.585840,424.146240,717.766580,422.810460C719.927030,422.120170,721.751520,420.620370,723.895200,419.879620C726.038880,419.138870,728.916130,419.502620,729.853510,421.567940C730.750760,423.544790,729.394570,425.936230,730.067320,428.000300C731.091960,431.143990,735.833320,431.386190,737.491270,434.246930C738.724850,436.375400,737.709850,439.201840,735.948530,440.919360C734.187210,442.636880,731.837230,443.578880,729.687190,444.774470C722.710980,448.653750,717.750060,455.275980,711.653270,460.428210C705.556480,465.580440,696.954610,469.342080,689.688640,466.037210C691.420640,457.267060,680.973640,450.828260,679.051750,442.097760C678.419160,439.224190,678.747090,436.171680,677.843970,433.371340C676.536410,429.316890,672.939310,426.529210,669.988400,423.456670C662.757525,415.846020,658.908585,405.636558,659.315530,395.146470C659.474990,391.538280,660.137890,387.871320,659.315880,384.354390C658.493870,380.837460,655.582080,377.433460,651.973880,377.592850C643.732810,377.956850,633.350830,378.569850,629.027100,371.544690C627.483950,369.037380,626.812410,365.365140,629.043520,363.444180C630.617430,362.089070,632.940700,362.216720,635.007620,362.420050L653.575940,364.246650C657.918800,364.673870,662.613330,365.026440,666.340030,362.756050C670.066730,360.485660,671.681540,354.459050,668.230760,351.787940C665.709400,349.836230,661.192040,349.942060,660.459110,346.838940C659.848700,344.254530,662.709280,341.322200,661.164300,339.162380C660.056510,337.613740,657.565960,338.043380,656.056770,339.204320C654.547580,340.365260,653.452590,342.063040,651.763560,342.942040C648.800650,344.484040,645.260400,343.016500,642.072660,342.019120C638.884920,341.021740,634.611410,340.937040,633.065230,343.897750C631.336030,347.208940,634.599020,351.547750,632.882900,354.865700C630.614000,359.252450,622.930320,356.755190,619.743840,360.528490C616.087390,364.858320,622.231950,371.314710,620.998840,376.846120C617.796393,378.432153,613.996090,378.218642,610.991450,376.283880C608.031546,374.270657,606.417697,370.793520,606.790810,367.233340C607.096040,364.745040,608.393320,362.205020,607.524100,359.853580C606.821320,357.952400,604.912460,356.820580,603.138390,355.840200L585.094160,345.869120C583.418880,348.976860,585.536810,352.829620,588.185600,355.163830C590.834390,357.498040,594.152110,359.256080,595.892150,362.328030C598.177023,366.746097,596.626273,372.179360,592.353610,374.725790C591.831617,375.086096,591.178154,375.200084,590.565000,375.037790C589.983371,374.696013,589.564910,374.133298,589.405000,373.477910C586.221260,365.330530,581.441230,357.297550,573.799110,353.041490C566.156990,348.785430,555.176050,349.660490,550.164680,356.830040C548.974370,358.532950,548.175490,360.474040,547.138570,362.274450C541.629570,371.839780,529.819200,376.369320,518.784870,376.073450C517.705425,376.133150,516.631615,375.880821,515.691730,375.346610C513.908420,374.114960,513.988730,371.501440,514.261730,369.351400L515.419990,360.227120C515.652580,358.394900,515.989610,356.369700,517.439770,355.225960C519.483940,353.613720,522.432770,354.631160,525.036000,354.593670C529.076080,354.404536,532.567127,351.710293,533.774000,347.850050C534.845751,343.971782,533.683143,339.818877,530.753540,337.060790C529.560390,335.940130,527.958920,334.532420,528.589120,333.021680C529.098160,332.175749,529.955459,331.598452,530.930720,331.444870C535.606800,330.086950,540.547720,329.731030,545.145840,328.128790C549.743960,326.526550,554.203140,323.248420,555.292070,318.502490C555.625780,317.048080,555.777710,315.286250,557.084120,314.565170C557.739631,314.288405,558.443581,314.144580,559.155120,314.142040C564.322290,313.406921,568.073182,308.848282,567.799370,303.636270C570.003010,302.096480,573.090370,303.229150,575.222230,304.866890C577.354090,306.504630,579.236230,308.668370,581.830230,309.374350C586.664370,310.690050,591.336030,306.409910,596.345970,306.390070C598.452800,306.381730,600.633790,307.126660,602.615860,306.412380C604.625190,305.688270,605.825120,303.688080,607.367270,302.210380C608.909420,300.732680,611.615330,299.831380,613.039330,301.423240L611.826720,292.441240C616.767389,293.689378,622.006388,292.742202,626.197270,289.843140L610.525270,284.547830C609.979583,284.411592,609.476105,284.142393,609.059760,283.764250C607.920370,282.537350,609.052080,280.625450,609.978590,279.230780C612.195040,275.894360,612.567110,270.398470,608.922220,268.737420C606.434330,267.603640,603.578640,268.964580,601.190700,270.296050L589.752110,276.674000C589.388610,278.848270,592.047480,280.080520,593.695110,281.545080C595.735523,283.358788,596.451265,286.240144,595.496723,288.797813C594.542181,291.355482,592.113691,293.063386,589.383910,293.096820C590.909707,295.080492,591.451014,297.650209,590.855080,300.080820L583.158910,300.634330C582.295161,300.808108,581.397740,300.632951,580.662730,300.147130C579.839600,299.416080,579.951230,298.135020,579.760450,297.050780C579.299990,294.433860,576.737550,292.599720,574.122390,292.129430C571.507230,291.659140,568.831860,292.261950,566.242270,292.857170C565.142676,293.252863,563.935150,293.224996,562.854980,292.779000C562.235590,292.376629,561.764934,291.782573,561.514900,291.087570C560.379590,288.334820,561.440780,285.099200,563.264180,282.745110C565.087580,280.391020,567.583700,278.670110,569.825480,276.710320C575.186474,272.006498,579.125275,265.897254,581.196940,259.072710C585.433700,257.297580,589.819940,254.885710,594.056650,253.110540C600.588548,249.803453,607.913539,248.384225,615.207910,249.012450L629.555990,249.286510C633.803990,249.367650,638.166900,249.471620,642.094930,251.091110C646.022960,252.710600,649.474420,256.213330,649.745610,260.453450C649.911892,261.429258,649.564297,262.421958,648.825610,263.080890C648.270883,263.383623,647.642570,263.525247,647.011610,263.489770C643.049840,263.629000,641.360680,264.616140,637.399000,264.755320Z" transform="matrix(1 0 0 1 -11.69690000000000 -13.01070000000000)" fill="rgb(63,61,86)" stroke="none" stroke-width="1"/><path id="exkolnqxjkz25" d="M523.035530,309.722740C524.178315,308.640971,524.620248,307.010996,524.180400,305.500130C521.398081,304.426444,518.247699,305.021327,516.048490,307.035670C515.198480,307.895443,514.465933,308.863875,513.869910,309.915770C511.984520,312.991770,510.316910,316.665980,511.409560,320.104390C511.589458,320.861893,512.066948,321.514977,512.734200,321.916160C513.223897,322.112711,513.751857,322.195410,514.278200,322.158010C516.355200,322.155311,518.430156,322.027600,520.491810,321.775570C521.757900,321.620770,523.228440,321.263230,523.717740,320.085300C524.360930,318.536900,522.804160,316.784560,523.257990,315.170470C523.556564,314.448674,524.009026,313.800712,524.583810,313.271790C525.161949,312.731809,525.451706,311.950882,525.365710,311.164480C525.182560,310.407130,524.022900,309.977480,523.605450,310.635480" transform="matrix(1 0 0 1 -11.69690000000000 -13.01070000000000)" fill="rgb(63,61,86)" stroke="none" stroke-width="1"/><path id="exkolnqxjkz26" d="M533.805710,295.759400C531.960592,295.335744,530.058663,295.216308,528.175040,295.405810C527.758451,295.393403,527.345560,295.487235,526.975250,295.678470C526.616445,295.943077,526.356239,296.319889,526.235890,296.749160C525.410923,299.397122,526.758942,302.234552,529.332790,303.267790C530.009261,303.423316,530.657238,303.683710,531.253220,304.039530C532.845740,305.275120,531.830520,307.800670,532.131990,309.793630C532.470510,312.031550,534.636750,313.910040,534.239590,316.138300C533.926700,317.893790,532.051740,319.283840,532.353590,321.041300C532.669760,322.881970,535.005480,323.435070,536.867280,323.582470C537.946285,323.771414,539.056912,323.644126,540.065190,323.215960C541.075811,322.524911,541.794593,321.483965,542.082780,320.294070C542.845000,318.025286,543.165289,315.631431,543.026310,313.242070C543.018106,312.155344,542.745163,311.086992,542.231110,310.129500C541.670460,309.370958,541.048984,308.659321,540.372840,308.001640C536.805800,303.852430,540.561670,297.663370,533.805710,295.759400Z" transform="matrix(1 0 0 1 -11.69690000000000 -13.01070000000000)" fill="rgb(63,61,86)" stroke="none" stroke-width="1"/><path id="exkolnqxjkz27" d="M1002.867480,620.794890C1002.867480,620.794890,729.666080,463.972330,612.049160,493.686080C612.049160,493.686080,362.783840,520.510990,333.895470,579.525790C333.895470,579.525790,254.658810,331.911230,225.770470,323.657410" transform="matrix(1 0 0 1 -11.69690000000000 -13.01070000000000)" opacity="0.8" fill="none" stroke="rgb(108,99,255)" stroke-width="2" stroke-miterlimit="10"/><path id="exkolnqxjkz28" d="M333.895470,579.525790C379.704170,457.369280,792.395100,322.006650,792.395100,322.006650C733.793000,336.863520,612.049160,493.686080,612.049160,493.686080C612.049160,493.686080,354.530000,306.324390,225.770450,323.657410C225.770450,323.657410,792.807790,342.228500,1002.867450,620.794890" transform="matrix(1 0 0 1 -11.69690000000000 -13.01070000000000)" fill="none" stroke="rgb(108,99,255)" stroke-width="2" stroke-miterlimit="10"/><circle id="exkolnqxjkz29" r="11.968000" transform="matrix(1 0 0 1 214.33212200000003 310.90512200000001)" fill="rgb(108,99,255)" stroke="none" stroke-width="1"/><circle id="exkolnqxjkz30" r="11.968000" transform="matrix(1 0 0 1 322.53585649999997 566.85185649999994)" fill="rgb(108,99,255)" stroke="none" stroke-width="1"/><circle id="exkolnqxjkz31" r="11.968000" transform="matrix(1 0 0 1 780.60710549999999 308.90510549999999)" fill="rgb(108,99,255)" stroke="none" stroke-width="1"/><circle id="exkolnqxjkz32" r="11.968000" transform="matrix(1 0 0 1 992.22173350000014 606.73326649999990)" fill="rgb(108,99,255)" stroke="none" stroke-width="1"/><circle id="exkolnqxjkz33" r="11.968000" transform="matrix(1 0 0 1 599.55630049999991 479.87930050000006)" fill="rgb(108,99,255)" stroke="none" stroke-width="1"/><script><![CDATA[!function(t,n){"object"==typeof exports&&"undefined"!=typeof module?module.exports=n():"function"==typeof define&&define.amd?define(n):(t=t||self).__SVGATOR_PLAYER__=n()}(this,(function(){"use strict";function t(n){return(t="function"==typeof Symbol&&"symbol"==typeof Symbol.iterator?function(t){return typeof t}:function(t){return t&&"function"==typeof Symbol&&t.constructor===Symbol&&t!==Symbol.prototype?"symbol":typeof t})(n)}function n(t,n){if(!(t instanceof n))throw new TypeError("Cannot call a class as a function")}function r(t,n){for(var r=0;r<n.length;r++){var e=n[r];e.enumerable=e.enumerable||!1,e.configurable=!0,"value"in e&&(e.writable=!0),Object.defineProperty(t,e.key,e)}}function e(t,n,e){return n&&r(t.prototype,n),e&&r(t,e),t}var i=Math.abs;function u(t){return t}function o(t,n,r){var e=1-r;return 3*r*e*(t*e+n*r)+r*r*r}function a(){var t=arguments.length>0&&void 0!==arguments[0]?arguments[0]:0,n=arguments.length>1&&void 0!==arguments[1]?arguments[1]:0,r=arguments.length>2&&void 0!==arguments[2]?arguments[2]:1,e=arguments.length>3&&void 0!==arguments[3]?arguments[3]:1;return t<0||t>1||r<0||r>1?null:i(t-n)<=1e-5&&i(r-e)<=1e-5?u:function(u){if(u<=0)return t>0?u*n/t:0===n&&r>0?u*e/r:0;if(u>=1)return r<1?1+(u-1)*(e-1)/(r-1):1===r&&t<1?1+(u-1)*(n-1)/(t-1):1;for(var a,l=0,f=1;l<f;){var s=o(t,r,a=(l+f)/2);if(i(u-s)<1e-5)break;s<u?l=a:f=a}return o(n,e,a)}}function l(){return 1}function f(t){return 1===t?1:0}function s(){var t=arguments.length>0&&void 0!==arguments[0]?arguments[0]:1,n=arguments.length>1&&void 0!==arguments[1]?arguments[1]:0;if(1===t){if(0===n)return f;if(1===n)return l}var r=1/t;return function(t){return t>=1?1:(t+=n*r)-t%r}}function c(t){var n=arguments.length>1&&void 0!==arguments[1]?arguments[1]:2;if(Number.isInteger(t))return t;var r=Math.pow(10,n);return Math.round(t*r)/r}var v=Math.PI/180;function h(t,n,r){return t>=.5?r:n}function y(t,n,r){return 0===t||n===r?n:t*(r-n)+n}function d(t,n,r){var e=y(t,n,r);return e<=0?0:e}function g(t,n,r){return 0===t?n:1===t?r:{x:y(t,n.x,r.x),y:y(t,n.y,r.y)}}function m(t,n,r){return 0===t?n:1===t?r:{x:d(t,n.x,r.x),y:d(t,n.y,r.y)}}function p(t,n,r){var e=function(t,n,r){return Math.round(y(t,n,r))}(t,n,r);return e<=0?0:e>=255?255:e}function b(t,n,r){return 0===t?n:1===t?r:{r:p(t,n.r,r.r),g:p(t,n.g,r.g),b:p(t,n.b,r.b),a:y(t,null==n.a?1:n.a,null==r.a?1:r.a)}}function w(t,n,r){if(0===t)return n;if(1===t)return r;var e=n.length;if(e!==r.length)return h(t,n,r);for(var i=[],u=0;u<e;u++)i.push(b(t,n[u],r[u]));return i}function A(t,n,r){var e=n.length;if(e!==r.length)return h(t,n,r);for(var i=new Array(e),u=0;u<e;u++)i[u]=y(t,n[u],r[u]);return i}function x(t,n){for(var r=[],e=0;e<t;e++)r.push(n);return r}function k(t,n){if(--n<=0)return t;var r=(t=Object.assign([],t)).length;do{for(var e=0;e<r;e++)t.push(t[e])}while(--n>0);return t}var S=/\.0+$/g;function _(t){return Number.isInteger(t)?t+"":t.toFixed(6).replace(S,"")}function M(t){var n=arguments.length>1&&void 0!==arguments[1]?arguments[1]:" ";return t&&t.length?t.map(_).join(n):""}function I(t){return _(t.x)+","+_(t.y)}function E(t){return t?null==t.a||t.a>=1?"rgb("+t.r+","+t.g+","+t.b+")":"rgba("+t.r+","+t.g+","+t.b+","+t.a+")":"transparent"}var F={f:null,i:m,u:function(t,n){return function(r){var e=n(r);t.setAttribute("rx",_(e.x)),t.setAttribute("ry",_(e.y))}}},B={f:null,i:function(t,n,r){return 0===t?n:1===t?r:{width:d(t,n.width,r.width),height:d(t,n.height,r.height)}},u:function(t,n){return function(r){var e=n(r);t.setAttribute("width",_(e.width)),t.setAttribute("height",_(e.height))}}},j=Math.sin,q=Math.cos,P=Math.acos,O=Math.asin,z=Math.tan,L=Math.atan2,C=Math.PI/180,R=180/Math.PI,T=Math.sqrt,V=function(){function t(){var r=arguments.length>0&&void 0!==arguments[0]?arguments[0]:1,e=arguments.length>1&&void 0!==arguments[1]?arguments[1]:0,i=arguments.length>2&&void 0!==arguments[2]?arguments[2]:0,u=arguments.length>3&&void 0!==arguments[3]?arguments[3]:1,o=arguments.length>4&&void 0!==arguments[4]?arguments[4]:0,a=arguments.length>5&&void 0!==arguments[5]?arguments[5]:0;n(this,t),this.m=[r,e,i,u,o,a],this.i=null,this.w=null,this.s=null}return e(t,[{key:"point",value:function(t,n){var r=this.m;return{x:r[0]*t+r[2]*n+r[4],y:r[1]*t+r[3]*n+r[5]}}},{key:"translateSelf",value:function(){var t=arguments.length>0&&void 0!==arguments[0]?arguments[0]:0,n=arguments.length>1&&void 0!==arguments[1]?arguments[1]:0;if(!t&&!n)return this;var r=this.m;return r[4]+=r[0]*t+r[2]*n,r[5]+=r[1]*t+r[3]*n,this.w=this.s=this.i=null,this}},{key:"rotateSelf",value:function(){var t=arguments.length>0&&void 0!==arguments[0]?arguments[0]:0;if(t%=360){var n=j(t*=C),r=q(t),e=this.m,i=e[0],u=e[1];e[0]=i*r+e[2]*n,e[1]=u*r+e[3]*n,e[2]=e[2]*r-i*n,e[3]=e[3]*r-u*n,this.w=this.s=this.i=null}return this}},{key:"scaleSelf",value:function(){var t=arguments.length>0&&void 0!==arguments[0]?arguments[0]:1,n=arguments.length>1&&void 0!==arguments[1]?arguments[1]:1;if(1!==t||1!==n){var r=this.m;r[0]*=t,r[1]*=t,r[2]*=n,r[3]*=n,this.w=this.s=this.i=null}return this}},{key:"skewSelf",value:function(t,n){if(n%=360,(t%=360)||n){var r=this.m,e=r[0],i=r[1],u=r[2],o=r[3];t&&(t=z(t*C),r[2]+=e*t,r[3]+=i*t),n&&(n=z(n*C),r[0]+=u*n,r[1]+=o*n),this.w=this.s=this.i=null}return this}},{key:"resetSelf",value:function(){var t=arguments.length>0&&void 0!==arguments[0]?arguments[0]:1,n=arguments.length>1&&void 0!==arguments[1]?arguments[1]:0,r=arguments.length>2&&void 0!==arguments[2]?arguments[2]:0,e=arguments.length>3&&void 0!==arguments[3]?arguments[3]:1,i=arguments.length>4&&void 0!==arguments[4]?arguments[4]:0,u=arguments.length>5&&void 0!==arguments[5]?arguments[5]:0,o=this.m;return o[0]=t,o[1]=n,o[2]=r,o[3]=e,o[4]=i,o[5]=u,this.w=this.s=this.i=null,this}},{key:"recomposeSelf",value:function(){var t=arguments.length>0&&void 0!==arguments[0]?arguments[0]:null,n=arguments.length>1&&void 0!==arguments[1]?arguments[1]:null,r=arguments.length>2&&void 0!==arguments[2]?arguments[2]:null,e=arguments.length>3&&void 0!==arguments[3]?arguments[3]:null,i=arguments.length>4&&void 0!==arguments[4]?arguments[4]:null;return this.isIdentity||this.resetSelf(),t&&(t.x||t.y)&&this.translateSelf(t.x,t.y),n&&this.rotateSelf(n),r&&(r.x&&this.skewSelf(r.x,0),r.y&&this.skewSelf(0,r.y)),!e||1===e.x&&1===e.y||this.scaleSelf(e.x,e.y),i&&(i.x||i.y)&&this.translateSelf(i.x,i.y),this}},{key:"decompose",value:function(){var t=arguments.length>0&&void 0!==arguments[0]?arguments[0]:0,n=arguments.length>1&&void 0!==arguments[1]?arguments[1]:0,r=this.m,e=r[0]*r[0]+r[1]*r[1],i=[[r[0],r[1]],[r[2],r[3]]],u=T(e);if(0===u)return{origin:{x:r[4],y:r[5]},translate:{x:t,y:n},scale:{x:0,y:0},skew:{x:0,y:0},rotate:0};i[0][0]/=u,i[0][1]/=u;var o=r[0]*r[3]-r[1]*r[2]<0;o&&(u=-u);var a=i[0][0]*i[1][0]+i[0][1]*i[1][1];i[1][0]-=i[0][0]*a,i[1][1]-=i[0][1]*a;var l=T(i[1][0]*i[1][0]+i[1][1]*i[1][1]);if(0===l)return{origin:{x:r[4],y:r[5]},translate:{x:t,y:n},scale:{x:u,y:0},skew:{x:0,y:0},rotate:0};i[1][0]/=l,i[1][1]/=l,a/=l;var f=0;return i[1][1]<0?(f=P(i[1][1])*R,i[0][1]<0&&(f=360-f)):f=O(i[0][1])*R,o&&(f=-f),a=L(a,T(i[0][0]*i[0][0]+i[0][1]*i[0][1]))*R,{origin:{x:r[4],y:r[5]},translate:{x:t,y:n},scale:{x:u,y:l},skew:{x:a,y:0},rotate:f}}},{key:"toString",value:function(){return null===this.s&&(this.s="matrix("+this.m.map(N).join(" ")+")"),this.s}},{key:"determinant",get:function(){var t=this.m;return t[0]*t[3]-t[1]*t[2]}},{key:"isIdentity",get:function(){if(null===this.i){var t=this.m;this.i=1===t[0]&&0===t[1]&&0===t[2]&&1===t[3]&&0===t[4]&&0===t[5]}return this.i}}]),t}(),D=/\.0+$/;function N(t){return Number.isInteger(t)?t:t.toFixed(14).replace(D,"")}Object.freeze({M:2,L:2,Z:0,H:1,V:1,C:6,Q:4,T:2,S:4,A:7});function G(t,n,r){return t+(n-t)*r}function $(t,n,r){var e=arguments.length>3&&void 0!==arguments[3]&&arguments[3],i={x:G(t.x,n.x,r),y:G(t.y,n.y,r)};return e&&(i.a=H(t,n)),i}function H(t,n){return Math.atan2(n.y-t.y,n.x-t.x)}function Q(t,n,r,e){var i=1-e;return i*i*t+2*i*e*n+e*e*r}function U(t,n,r,e){return 2*(1-e)*(n-t)+2*e*(r-n)}function Y(t,n,r,e){var i=arguments.length>4&&void 0!==arguments[4]&&arguments[4],u={x:Q(t.x,n.x,r.x,e),y:Q(t.y,n.y,r.y,e)};return i&&(u.a=Z(t,n,r,e)),u}function Z(t,n,r,e){return Math.atan2(U(t.y,n.y,r.y,e),U(t.x,n.x,r.x,e))}function J(t,n,r,e,i){var u=i*i;return i*u*(e-t+3*(n-r))+3*u*(t+r-2*n)+3*i*(n-t)+t}function K(t,n,r,e,i){var u=1-i;return 3*(u*u*(n-t)+2*u*i*(r-n)+i*i*(e-r))}function W(t,n,r,e,i){var u=arguments.length>5&&void 0!==arguments[5]&&arguments[5],o={x:J(t.x,n.x,r.x,e.x,i),y:J(t.y,n.y,r.y,e.y,i)};return u&&(o.a=X(t,n,r,e,i)),o}function X(t,n,r,e,i){return Math.atan2(K(t.y,n.y,r.y,e.y,i),K(t.x,n.x,r.x,e.x,i))}function tt(t,n,r){var e=arguments.length>3&&void 0!==arguments[3]&&arguments[3];if(rt(n)){if(et(r))return Y(n,r.start,r,t,e)}else if(rt(r)){if(n.end)return Y(n,n.end,r,t,e)}else{if(n.end)return r.start?W(n,n.end,r.start,r,t,e):Y(n,n.end,r,t,e);if(r.start)return Y(n,r.start,r,t,e)}return $(n,r,t,e)}function nt(t,n,r){var e=tt(t,n,r,!0);return e.a=function(t){var n=arguments.length>1&&void 0!==arguments[1]&&arguments[1];return n?t+Math.PI:t}(e.a)/v,e}function rt(t){return!t.type||"corner"===t.type}function et(t){return null!=t.start&&!rt(t)}var it=new V;var ut={f:function(t){return t?t.join(" "):""},i:function(n,r,e){if(0===n)return r;if(1===n)return e;var i=r.length;if(i!==e.length)return h(n,r,e);for(var u,o=new Array(i),a=0;a<i;a++){if((u=t(r[a]))!==t(e[a]))return h(n,r,e);if("number"===u)o[a]=y(n,r[a],e[a]);else{if(r[a]!==e[a])return h(n,r,e);o[a]=r[a]}}return o}},ot={f:null,i:A,u:function(t,n){return function(r){var e=n(r);t.setAttribute("x1",_(e[0])),t.setAttribute("y1",_(e[1])),t.setAttribute("x2",_(e[2])),t.setAttribute("y2",_(e[3]))}}},at={f:_,i:y},lt={f:_,i:function(t,n,r){var e=y(t,n,r);return e<=0?0:e>=1?1:e}},ft={f:M,i:function(t,n,r){var e,i,u,o=n.length,a=r.length;if(o!==a)if(0===o)n=x(o=a,0);else if(0===a)a=o,r=x(o,0);else{var l=(u=(e=o)*(i=a)/function(t,n){for(var r;n;)r=n,n=t%n,t=r;return t||1}(e,i))<0?-u:u;n=k(n,Math.floor(l/o)),r=k(r,Math.floor(l/a)),o=a=l}for(var f=[],s=0;s<o;s++)f.push(c(d(t,n[s],r[s]),6));return f}};function st(t,n,r,e,i,u,o,a){return n=function(t,n,r){for(var e,i,u,o=t.length-1,a={},l=0;l<=o;l++)(e=t[l]).e&&(e.e=n(e.e)),e.v&&"g"===(i=e.v).t&&i.r&&(u=r.getElementById(i.r))&&(a[i.r]=u.querySelectorAll("stop"));return a}(t,e,a),function(e){var i,u=r(e,t,ct);return u?"c"===u.t?E(u.v):"g"===u.t?(n[u.r]&&function(t,n){for(var r=0,e=t.length;r<e;r++)t[r].setAttribute("stop-color",E(n[r]))}(n[u.r],u.v),(i=u.r)?"url(#"+i+")":"none"):"none":"none"}}function ct(t,n,r){if(0===t)return n;if(1===t)return r;if(n&&r){var e=n.t;if(e===r.t)switch(n.t){case"c":return{t:e,v:b(t,n.v,r.v)};case"g":if(n.r===r.r)return{t:e,v:w(t,n.v,r.v),r:n.r}}}return h(t,n,r)}var vt={blur:m,brightness:d,contrast:d,"drop-shadow":function(t,n,r){return 0===t?n:1===t?r:{blur:m(t,n.blur,r.blur),offset:g(t,n.offset,r.offset),color:b(t,n.color,r.color)}},grayscale:d,"hue-rotate":y,invert:d,opacity:d,saturate:d,sepia:d};function ht(t,n,r){if(0===t)return n;if(1===t)return r;var e=n.length;if(e!==r.length)return h(t,n,r);for(var i,u=[],o=0;o<e;o++){if(n[o].type!==r[o].type)return n;if(!(i=vt[n[o].type]))return h(t,n,r);u.push({type:n.type,value:i(t,n[o].value,r[o].value)})}return u}var yt={blur:function(t){return t?function(n){t.setAttribute("stdDeviation",I(n))}:null},brightness:function(t,n,r){return(t=gt(r,n))?function(n){n=_(n),t.map((function(t){return t.setAttribute("slope",n)}))}:null},contrast:function(t,n,r){return(t=gt(r,n))?function(n){var r=_((1-n)/2);n=_(n),t.map((function(t){t.setAttribute("slope",n),t.setAttribute("intercept",r)}))}:null},"drop-shadow":function(t,n,r){var e=r.getElementById(n+"-blur");if(!e)return null;var i=r.getElementById(n+"-offset");if(!i)return null;var u=r.getElementById(n+"-flood");return u?function(t){e.setAttribute("stdDeviation",I(t.blur)),i.setAttribute("dx",_(t.offset.x)),i.setAttribute("dy",_(t.offset.y)),u.setAttribute("flood-color",E(t.color))}:null},grayscale:function(t){return t?function(n){t.setAttribute("values",M(function(t){return[.2126+.7874*(t=1-t),.7152-.7152*t,.0722-.0722*t,0,0,.2126-.2126*t,.7152+.2848*t,.0722-.0722*t,0,0,.2126-.2126*t,.7152-.7152*t,.0722+.9278*t,0,0,0,0,0,1,0]}(n)))}:null},"hue-rotate":function(t){return t?function(n){return t.setAttribute("values",_(n))}:null},invert:function(t,n,r){return(t=gt(r,n))?function(n){n=_(n)+" "+_(1-n),t.map((function(t){return t.setAttribute("tableValues",n)}))}:null},opacity:function(t,n,r){return(t=r.getElementById(n+"-A"))?function(n){return t.setAttribute("tableValues","0 "+_(n))}:null},saturate:function(t){return t?function(n){return t.setAttribute("values",_(n))}:null},sepia:function(t){return t?function(n){return t.setAttribute("values",M(function(t){return[.393+.607*(t=1-t),.769-.769*t,.189-.189*t,0,0,.349-.349*t,.686+.314*t,.168-.168*t,0,0,.272-.272*t,.534-.534*t,.131+.869*t,0,0,0,0,0,1,0]}(n)))}:null}};var dt=["R","G","B"];function gt(t,n){var r=dt.map((function(r){return t.getElementById(n+"-"+r)||null}));return-1!==r.indexOf(null)?null:r}var mt={fill:st,"fill-opacity":lt,stroke:st,"stroke-opacity":lt,"stroke-width":at,"stroke-dashoffset":{f:_,i:y},"stroke-dasharray":ft,opacity:lt,transform:function(n,r,e,i){if(!(n=function(n,r){if(!n||"object"!==t(n))return null;var e=!1;for(var i in n)n.hasOwnProperty(i)&&(n[i]&&n[i].length?(n[i].forEach((function(t){t.e&&(t.e=r(t.e))})),e=!0):delete n[i]);return e?n:null}(n,i)))return null;var u=function(t,i,u){var o=arguments.length>3&&void 0!==arguments[3]?arguments[3]:null;return n[t]?e(i,n[t],u):r&&r[t]?r[t]:o};return r&&r.a&&n.o?function(t){var r=e(t,n.o,nt);return it.recomposeSelf(r,u("r",t,y,0)+r.a,u("k",t,g),u("s",t,g),u("t",t,g)).toString()}:function(t){return it.recomposeSelf(u("o",t,tt,null),u("r",t,y,0),u("k",t,g),u("s",t,g),u("t",t,g)).toString()}},"#filter":function(t,n,r,e,i,u,o,a){if(!n.items||!t||!t.length)return null;var l=function(t,n){var r=(t=t.map((function(t){return t&&yt[t[0]]?(n.getElementById(t[1]),yt[t[0]](n.getElementById(t[1]),t[1],n)):null}))).length;return function(n){for(var e=0;e<r;e++)t[e]&&t[e](n[e].value)}}(n.items,a);return l?(t=function(t,n){return t.map((function(t){return t.e=n(t.e),t}))}(t,e),function(n){l(r(n,t,ht))}):null},"#line":ot,points:{f:M,i:A},d:ut,r:at,"#size":B,"#radius":F,_:function(t,n){if(Array.isArray(t))for(var r=0;r<t.length;r++)this[t[r]]=n;else this[t]=n}},pt=function(){function t(r){n(this,t),this.list=r,this.length=r.length}return e(t,[{key:"setAttribute",value:function(t,n){for(var r=this.list,e=0;e<this.length;e++)r[e].setAttribute(t,n)}},{key:"removeAttribute",value:function(t){for(var n=this.list,r=0;r<this.length;r++)n[r].removeAttribute(t)}},{key:"style",value:function(t,n){for(var r=this.list,e=0;e<this.length;e++)r[e].style[t]=n}}]),t}(),bt=/-./g,wt=function(t,n){return n.toUpperCase()};function At(t){return"function"==typeof t?t:h}function xt(t){return t?"function"==typeof t?t:Array.isArray(t)?function(t){var n=arguments.length>1&&void 0!==arguments[1]?arguments[1]:u;if(!Array.isArray(t))return n;switch(t.length){case 1:return s(t[0])||n;case 2:return s(t[0],t[1])||n;case 4:return a(t[0],t[1],t[2],t[3])||n}return n}(t,null):function(t,n){var r=arguments.length>2&&void 0!==arguments[2]?arguments[2]:u;switch(t){case"linear":return u;case"steps":return s(n.steps||1,n.jump||0)||r;case"bezier":case"cubic-bezier":return a(n.x1||0,n.y1||0,n.x2||0,n.y2||0)||r}return r}(t.type,t.value,null):null}function kt(t,n,r){var e=arguments.length>3&&void 0!==arguments[3]&&arguments[3],i=n.length-1;if(t<=n[0].t)return e?[0,0,n[0].v]:n[0].v;if(t>=n[i].t)return e?[i,1,n[i].v]:n[i].v;var u,o=n[0],a=null;for(u=1;u<=i;u++){if(!(t>n[u].t)){a=n[u];break}o=n[u]}return null==a?e?[i,1,n[i].v]:n[i].v:o.t===a.t?e?[u,1,a.v]:a.v:(t=(t-o.t)/(a.t-o.t),o.e&&(t=o.e(t)),e?[u,t,r(t,o.v,a.v)]:r(t,o.v,a.v))}function St(t,n){var r=arguments.length>2&&void 0!==arguments[2]?arguments[2]:null;return t&&t.length?"function"!=typeof n?null:("function"!=typeof r&&(r=null),function(e){var i=kt(e,t,n);return null!=i&&r&&(i=r(i)),i}):null}function _t(t,n){return t.t-n.t}function Mt(n,r,e,i,u){var o,a="@"===e[0],l="#"===e[0],f=mt[e],s=h;switch(a?(o=e.substr(1),e=o.replace(bt,wt)):l&&(e=e.substr(1)),t(f)){case"function":if(s=f(i,u,kt,xt,e,a,r,n),l)return s;break;case"string":s=St(i,At(f));break;case"object":if((s=St(i,At(f.i),f.f))&&"function"==typeof f.u)return f.u(r,s,e,a,n)}return s?function(t,n,r){var e=arguments.length>3&&void 0!==arguments[3]&&arguments[3];if(e)return t instanceof pt?function(e){return t.style(n,r(e))}:function(e){return t.style[n]=r(e)};if(Array.isArray(n)){var i=n.length;return function(e){var u=r(e);if(null==u)for(var o=0;o<i;o++)t[o].removeAttribute(n);else for(var a=0;a<i;a++)t[a].setAttribute(n,u)}}return function(e){var i=r(e);null==i?t.removeAttribute(n):t.setAttribute(n,i)}}(r,e,s,a):null}function It(n,r,e,i){if(!i||"object"!==t(i))return null;var u=null,o=null;return Array.isArray(i)?o=function(t){if(!t||!t.length)return null;for(var n=0;n<t.length;n++)t[n].e&&(t[n].e=xt(t[n].e));return t.sort(_t)}(i):(o=i.keys,u=i.data||null),o?Mt(n,r,e,o,u):null}function Et(t,n,r){if(!r)return null;var e=[];for(var i in r)if(r.hasOwnProperty(i)){var u=It(t,n,i,r[i]);u&&e.push(u)}return e.length?e:null}function Ft(t,n){if(!n.duration||n.duration<0)return null;var r=function(t,n){if(!n)return null;var r=[];if(Array.isArray(n))for(var e=n.length,i=0;i<e;i++){var u=n[i];if(2===u.length){var o=null;if("string"==typeof u[0])o=t.getElementById(u[0]);else if(Array.isArray(u[0])){o=[];for(var a=0;a<u[0].length;a++)if("string"==typeof u[0][a]){var l=t.getElementById(u[0][a]);l&&o.push(l)}o=o.length?1===o.length?o[0]:new pt(o):null}if(o){var f=Et(t,o,u[1]);f&&(r=r.concat(f))}}}else for(var s in n)if(n.hasOwnProperty(s)){var c=t.getElementById(s);if(c){var v=Et(t,c,n[s]);v&&(r=r.concat(v))}}return r.length?r:null}(t,n.elements);return r?function(t,n){var r=arguments.length>2&&void 0!==arguments[2]?arguments[2]:1/0,e=arguments.length>3&&void 0!==arguments[3]?arguments[3]:1,i=arguments.length>4&&void 0!==arguments[4]&&arguments[4],u=arguments.length>5&&void 0!==arguments[5]?arguments[5]:1,o=t.length,a=e>0?n:0;i&&r%2==0&&(a=n-a);var l=null;return function(f,s){var c=f%n,v=1+(f-c)/n;s*=e,i&&v%2==0&&(s=-s);var h=!1;if(v>r)c=a,h=!0,-1===u&&(c=e>0?0:n);else if(s<0&&(c=n-c),c===l)return!1;l=c;for(var y=0;y<o;y++)t[y](c);return h}}(r,n.duration,n.iterations||1/0,n.direction||1,!!n.alternate,n.fill||1):null}var Bt=function(){function t(r){var e=arguments.length>1&&void 0!==arguments[1]?arguments[1]:{};n(this,t),this._id=0,this._running=!1,this._animations=r,this.direction=e.direction||1,this.speed=e.speed||1,this.fps=e.fps||100,this.offset=e.offset||0}return e(t,[{key:"_start",value:function(){var t=this,n=arguments.length>0&&void 0!==arguments[0]?arguments[0]:0,r=-1/0,e=null,i={},u=function u(o){t._running=!0,null==e&&(e=o);var a=Math.round((o-e+n)*t.speed),l=t.fps?1e3/t.fps:0;if(a>r+l){t.offset=a,r=a;for(var f=t._animations,s=f.length,c=0,v=0;v<s;v++)i[v]?c++:(i[v]=f[v](a,t.direction),i[v]&&c++);if(c===s)return void t._stop()}t._id=window.requestAnimationFrame(u)};this._id=window.requestAnimationFrame(u)}},{key:"_stop",value:function(){this._id&&window.cancelAnimationFrame(this._id),this._running=!1}},{key:"play",value:function(){this._running||this._start(this.offset)}},{key:"stop",value:function(){this._stop(),this.offset=0;var t=this.direction,n=this._animations;requestAnimationFrame((function(){for(var r=0;r<n.length;r++)n[r](0,t)}))}},{key:"restart",value:function(){this._stop(),this.offset=0,this._start()}},{key:"pause",value:function(){this._stop()}},{key:"reverse",value:function(){this.direction=-this.direction}}],[{key:"build",value:function(n){if(!(n=function(t){if(!t||!t.root||!Array.isArray(t.animations))return null;var n=window.document.getElementById(t.root);if(!n)return null;var r=t.animations.map((function(t){return Ft(n,t)})).filter((function(t){return!!t}));return r.length?{element:n,animations:r,options:t.options||void 0}:null}(n)))return null;var r=n.element,e=n.options||{},i=new t(n.animations,n.options);return function(t,n,r){var e=arguments.length>3&&void 0!==arguments[3]?arguments[3]:null;if("click"===r){var i=function r(){n.removeEventListener("click",r),t.play()};return void n.addEventListener("click",i)}if("hover"===r)return n.addEventListener("mouseenter",(function(){return t.play()})),void n.addEventListener("mouseleave","freeze"===e?function(){return t.pause()}:function(){return t.stop()});t.play()}(i,r,e.start,e.hover),i}}]),t}();return function(){for(var t=0,n=["ms","moz","webkit","o"],r=0;r<n.length&&!window.requestAnimationFrame;++r)window.requestAnimationFrame=window[n[r]+"RequestAnimationFrame"],window.cancelAnimationFrame=window[n[r]+"CancelAnimationFrame"]||window[n[r]+"CancelRequestAnimationFrame"];window.requestAnimationFrame||(window.requestAnimationFrame=function(n){var r=Date.now(),e=Math.max(0,16-(r-t)),i=window.setTimeout((function(){n(r+e)}),e);return t=r+e,i},window.cancelAnimationFrame=window.clearTimeout)}(),Bt}));
__SVGATOR_PLAYER__.build({"root":"exkolnqxjkz1","animations":[{"duration":3000,"direction":1,"iterations":1,"fill":1,"alternate":false,"elements":{"exkolnqxjkz2":{"transform":{"data":{"o":{"x":-11.6969,"y":-13.0107,"type":"corner"}},"keys":{"r":[{"t":0,"v":-2},{"t":700,"v":2},{"t":1400,"v":0},{"t":3000,"v":0}]}}},"exkolnqxjkz27":{"opacity":[{"t":0,"v":0.8},{"t":200,"v":0},{"t":400,"v":0.8},{"t":1000,"v":0.8},{"t":1100,"v":0},{"t":1200,"v":0.8},{"t":1800,"v":0.8},{"t":2000,"v":0},{"t":2200,"v":0.8},{"t":2800,"v":0.8},{"t":2900,"v":0},{"t":3000,"v":0.8}]},"exkolnqxjkz28":{"opacity":[{"t":0,"v":1},{"t":80,"v":0},{"t":170,"v":1},{"t":270,"v":0},{"t":350,"v":1},{"t":460,"v":1},{"t":530,"v":0},{"t":600,"v":1},{"t":770,"v":1},{"t":840,"v":0},{"t":920,"v":1},{"t":990,"v":1},{"t":1330,"v":1},{"t":1410,"v":0},{"t":1490,"v":1},{"t":1730,"v":0},{"t":1810,"v":1},{"t":1880,"v":0},{"t":1940,"v":1},{"t":3000,"v":1}]},"exkolnqxjkz29":{"r":[{"t":700,"v":11.968},{"t":1900,"v":21.749258209999983},{"t":2600,"v":11.968}]},"exkolnqxjkz30":{"r":[{"t":200,"v":11.968},{"t":400,"v":22.202255999999934},{"t":600,"v":11.968},{"t":800,"v":11.968},{"t":1500,"v":11.968},{"t":1700,"v":25.174818499999944},{"t":1900,"v":11.968},{"t":2500,"v":11.968},{"t":2700,"v":20.76226050000002},{"t":2900,"v":11.968}]},"exkolnqxjkz31":{"r":[{"t":100,"v":11.968},{"t":1500,"v":17.791541500000065},{"t":2900,"v":11.968}]},"exkolnqxjkz32":{"r":[{"t":1000,"v":11.968},{"t":2000,"v":21.526201740000033},{"t":3000,"v":11.968}]},"exkolnqxjkz33":{"r":[{"t":0,"v":11.968},{"t":200,"v":20.88240800000001},{"t":400,"v":9.274547000000009},{"t":1300,"v":9.274547000000009},{"t":1500,"v":23.846389284365628},{"t":1700,"v":9.274547000000009},{"t":2200,"v":9.274547000000009},{"t":2400,"v":19.789669500000212},{"t":2600,"v":9.274547000000009}]}}}],"options":{"start":"load","hover":"restart"}})]]></script></svg>